<?xml version="1.0" encoding="utf-8"?>
<!-- Generator: Adobe Illustrator 18.1.1, SVG Export Plug-In . SVG Version: 6.00 Build 0)  -->
<svg version="1.1" id="Calque_1" xmlns="http://www.w3.org/2000/svg" xmlns:xlink="http://www.w3.org/1999/xlink" x="0px" y="0px"
	 viewBox="0 0 300 300" enable-background="new 0 0 300 300" xml:space="preserve">
<circle fill="#97A1A9" cx="150.3" cy="149.3" r="140.5"/>
<g>
	<path fill="#FCFCFC" d="M85.6,73c7.5-9.1,16.8-15.3,28.9-16c20.4-1.2,38.1,14.5,39.4,35c0.1,1.7,0,3.4,1.3,5.1
		c0.3-4.9,0.6-9.7,1-14.9c9.6,3.2,15.8,9.8,18.4,19.6c2.7,9.9,0,18.7-6.7,26.3c-0.5,0.6-1.1,1.4-1.7,1.5c-9.2,1.3-14,8.3-19,15.2
		c-2.9-6.1-2.4-7.7,3.5-12.8c-7.5-1.6-9.3,0-14.6,12.5c-5.1-1.6-10.1-3.5-15.2-4.4c-1.8-0.3-4,2-5.3,2.6c4.5,2.6,9.1,4.8,13,7.7
		c1.4,1.1,1.4,4.1,2.1,6.2c-2.1,0.6-4.1,1.8-6.2,1.7c-3.7-0.2-7.3-1.1-12-1.8c2.4,2.9,4.3,5.3,6.5,8c-6,2.5-12.1,4.5-14.1,11.8
		c-0.3,1.2-3.4,2.1-5.3,2.4c-15.9,2.8-29-2.1-38.2-15.3c-9.2-13.2-9-27.2-0.8-41.1c0.7-1.3,1.6-2.5,2.4-3.7
		c-0.4-0.3-0.8-0.6-1.3-0.9c-2.7,4.1-5.4,8.1-8.2,12.2c-1,1.5-2,3.1-3,4.6c0,2.6,0.2,5.2-0.1,7.8c-3,28.3,26,49,52.3,37.3
		c0.8-0.4,1.7-0.6,2.6-0.9c5.6,8.7,8.1,9.6,13.6,6.1c-1.7-2.3-5.1-4.8-5-7.1c0.3-4.7,4.6-5.7,9-5.8c6.5-0.2,12.9-0.8,19.9-1.2
		c15.4,27.4,39,49.8,61.3,73.2c4.9,5.1,7-1,11.6-3.6c-5.3-4.8-10.7-9.4-15.8-14.4c-7.4-7.3-7.3-7.5-3-16.8c4.3-0.5,8.4-1.1,12.5-1.2
		c2.2-0.1,5.1,0.2,6.6,1.6c0.9,0.9-0.2,4-0.5,6.5c4,1.2,6.2-2,6.6-5.5c0.7-6.6-5.3-6.6-9.8-8.3c0.9-1.6,1.7-3.2,2.9-5.6
		c-2.9,1-5,2-7.3,2.5c-1.3,0.3-3.9,0.1-4.1-0.5c-0.5-1.4-0.5-3.6,0.4-4.6c2-2.3,4.6-4.1,6.8-5.9c-4.4-2.5-5.8-2.2-12.1,3.7
		c-2.9-3.3-4.4-9.2-10.5-7.4c1.4,2.5,2.7,4.8,4.1,7.3c-6.2-2.7-12-4.5-16.9-7.6c-11.1-6.9-9.6-24.2,2.7-30.9
		c0.4,1.8,0.7,3.5,1.3,6.4c1.9-23.9,20.5-34.3,39.8-24.3c-4.8-6.6-15.6-9.1-24.7-5.5c-8.2,3.2-13.2,9.1-15.6,17.6
		c-0.5,1.7-1.6,3.8-3.1,4.7c-13.6,8.1-14.7,22.7-2.4,32.7c0.4,0.3,0.8,0.8,1.4,1.4c-2.8,2.9-4.5,6-1,9.2c1.7-1.6,3.2-4,4.6-3.9
		c1.9,0,4.2,1.6,5.4,3.1c2.7,3.4,5.4,7,6.9,10.9c0.8,2.1-0.8,5.2-1.3,8c-1.4-0.4-2.2-0.3-2.4-0.7c-11.5-13.8-23-27.6-34.3-41.5
		c-2.6-3.2-4.1-6.8-0.4-11c2.1-2.4,2.5-6.3,3.7-9.4c0.9-2.5,1.3-5.5,3-7.3c2-2.1,5.1-3.9,7.9-4.2c1.4-0.1,3.2,3.3,5,5.3
		c5.2-3.2,4.6-7.6-3.1-14c8.2-7.7,12.8-16.8,10.2-28.3c-2.4-10.8-8.9-17.9-19.3-21c-3.7-1.1-5.4-2.9-6.9-6.4
		c-6-14.3-17.4-22.1-32.4-23c-13.5-0.8-24.7,5-32.5,16.3C86.8,69.5,86.3,71.3,85.6,73z"/>
	<path fill="#FCFCFC" d="M48.2,133.9c-0.8-1.2-1.4-2.6-2.3-3.7c-6.7-8.4-5.1-18.6,4.2-25.1c1.3,3.5,2.5,6.9,3.7,10.3
		c-2.1-12.4-0.1-23.4,10-31.6c10.2-8.3,21.3-8.2,33.2-3.3c-2.9-1.6-5.8-3.1-8.6-4.8c-1.1-0.7-1.8-1.8-2.6-2.8
		c-2,0.4-3.9,1.2-5.9,1.2c-15.7,0.1-26.7,9.6-29.3,25.2c-0.3,1.6-1,3.7-2.2,4.6C36.1,112.9,36,125.1,48.2,133.9z"/>
	<path fill="#FCFCFC" d="M224.9,210.1c12.8,2.2,23.6-3.2,28.2-14.4c4.4-10.7,1.1-22.5-8-28.8C259.3,185.6,249.3,208.5,224.9,210.1z"
		/>
	<path fill="#FCFCFC" d="M248.5,161.4c1.9-9.3-1.3-16.6-8.2-20.7c-7-4.1-14.6-3.5-22,2.7c7.7-3.1,14.2-4,20.6-0.1
		C245.3,147.2,247.9,153.2,248.5,161.4z"/>
	<path fill="#FCFCFC" d="M237.8,175.5c3-7.6,0.5-16-6.4-20.8c-7.1-5-16-4.5-22.6,1.2C227.6,148.3,238.9,161.7,237.8,175.5z"/>
	<path fill="#FCFCFC" d="M74.3,134.5c-8.8-26.2,12.9-48.2,38.9-38.2c-9.2-8-24.7-7.3-34.6,1.4C68.4,106.8,66.3,121.9,74.3,134.5z"/>
	<path fill="#FCFCFC" d="M88.6,171.8c-7.5-3.9-14.6-7.6-22.7-11.8C72.3,167.4,79.5,171.1,88.6,171.8z"/>
	<path fill="#FCFCFC" d="M140.9,80.4c-4.5-6.9-10.8-10.7-19.7-12.1C128.3,72.7,134.6,76.6,140.9,80.4z"/>
	<path fill="#FCFCFC" d="M162.5,124.8c3.6-9.2,3.9-16.9,0-25.5C162.5,107.9,162.5,115.7,162.5,124.8z"/>
	<path fill="#FCFCFC" d="M106.1,104.5c6.4,4.1,11.7,7.4,17.4,11.1C119.6,109.3,114,106.3,106.1,104.5z"/>
	<path fill="#FCFCFC" d="M83.4,140.5c4.4,3.9,8.8,7.7,13.2,11.6c0.3-0.4,0.7-0.8,1-1.2c-4.3-3.8-8.7-7.6-13-11.5
		C84.2,139.8,83.8,140.2,83.4,140.5z"/>
</g>
</svg>
